<mxfile host="65bd71144e" scale="2" border="0">
    <diagram id="y3lX9eNrz7e-Z_JS-NOT" name="第 1 页">
        <mxGraphModel dx="965" dy="722" grid="1" gridSize="10" guides="1" tooltips="1" connect="1" arrows="1" fold="1" page="1" pageScale="1" pageWidth="827" pageHeight="1169" math="1" shadow="0">
            <root>
                <mxCell id="0"/>
                <mxCell id="1" parent="0"/>
                <mxCell id="TLOZ-Fmwr8OnzwcKuDfj-39" value="" style="rounded=1;whiteSpace=wrap;html=1;fillColor=#d5e8d4;dashed=1;fontSize=16;fontFamily=Times New Roman;fontStyle=0;strokeColor=#82b366;" vertex="1" parent="1">
                    <mxGeometry x="405" y="340" width="345" height="105" as="geometry"/>
                </mxCell>
                <mxCell id="TLOZ-Fmwr8OnzwcKuDfj-99" value="" style="rounded=1;whiteSpace=wrap;html=1;shadow=0;glass=0;dashed=1;sketch=0;fontFamily=Times New Roman;fontSize=16;fillColor=#fff2cc;strokeColor=#d6b656;" vertex="1" parent="1">
                    <mxGeometry x="120" y="340" width="260" height="220" as="geometry"/>
                </mxCell>
                <mxCell id="TLOZ-Fmwr8OnzwcKuDfj-65" style="edgeStyle=orthogonalEdgeStyle;rounded=0;orthogonalLoop=1;jettySize=auto;html=1;entryX=1;entryY=0.25;entryDx=0;entryDy=0;startArrow=none;startFill=0;exitX=0.75;exitY=1;exitDx=0;exitDy=0;fontSize=16;fontFamily=Times New Roman;fontStyle=0" edge="1" parent="1" source="TLOZ-Fmwr8OnzwcKuDfj-64" target="TLOZ-Fmwr8OnzwcKuDfj-27">
                    <mxGeometry relative="1" as="geometry"/>
                </mxCell>
                <mxCell id="TLOZ-Fmwr8OnzwcKuDfj-64" value="" style="rounded=1;whiteSpace=wrap;html=1;dashed=1;fontSize=16;fontFamily=Times New Roman;fontStyle=0;glass=0;fillColor=none;shadow=0;sketch=0;" vertex="1" parent="1">
                    <mxGeometry x="290" y="350" width="80" height="70" as="geometry"/>
                </mxCell>
                <mxCell id="TLOZ-Fmwr8OnzwcKuDfj-21" value="" style="edgeStyle=orthogonalEdgeStyle;rounded=0;orthogonalLoop=1;jettySize=auto;html=1;fontSize=16;fontFamily=Times New Roman;fontStyle=0" edge="1" parent="1" source="TLOZ-Fmwr8OnzwcKuDfj-3" target="TLOZ-Fmwr8OnzwcKuDfj-20">
                    <mxGeometry relative="1" as="geometry"/>
                </mxCell>
                <mxCell id="TLOZ-Fmwr8OnzwcKuDfj-3" value="Model&lt;br style=&quot;font-size: 16px;&quot;&gt;Predictive&lt;br style=&quot;font-size: 16px;&quot;&gt;Controller" style="rounded=1;whiteSpace=wrap;html=1;fontSize=16;fontFamily=Times New Roman;fontStyle=1;fillColor=none;" vertex="1" parent="1">
                    <mxGeometry x="425" y="365" width="120" height="60" as="geometry"/>
                </mxCell>
                <mxCell id="TLOZ-Fmwr8OnzwcKuDfj-91" style="edgeStyle=orthogonalEdgeStyle;rounded=0;orthogonalLoop=1;jettySize=auto;html=1;exitX=0;exitY=0.5;exitDx=0;exitDy=0;entryX=1;entryY=0.5;entryDx=0;entryDy=0;fontFamily=Times New Roman;fontSize=16;startArrow=none;startFill=0;" edge="1" parent="1" source="TLOZ-Fmwr8OnzwcKuDfj-4" target="TLOZ-Fmwr8OnzwcKuDfj-27">
                    <mxGeometry relative="1" as="geometry">
                        <mxPoint x="517.5" y="499.9999999999999" as="sourcePoint"/>
                    </mxGeometry>
                </mxCell>
                <mxCell id="TLOZ-Fmwr8OnzwcKuDfj-92" style="edgeStyle=orthogonalEdgeStyle;rounded=0;orthogonalLoop=1;jettySize=auto;html=1;exitX=0;exitY=0.75;exitDx=0;exitDy=0;entryX=1;entryY=0.75;entryDx=0;entryDy=0;fontFamily=Times New Roman;fontSize=16;startArrow=none;startFill=0;" edge="1" parent="1" target="TLOZ-Fmwr8OnzwcKuDfj-27">
                    <mxGeometry relative="1" as="geometry">
                        <mxPoint x="517.5" y="515" as="sourcePoint"/>
                    </mxGeometry>
                </mxCell>
                <mxCell id="TLOZ-Fmwr8OnzwcKuDfj-93" style="edgeStyle=orthogonalEdgeStyle;orthogonalLoop=1;jettySize=auto;html=1;exitX=0;exitY=0.75;exitDx=0;exitDy=0;entryX=0;entryY=0.75;entryDx=0;entryDy=0;fontFamily=Times New Roman;fontSize=16;startArrow=none;startFill=0;jumpStyle=arc;sketch=0;jumpSize=6;rounded=0;" edge="1" parent="1" target="TLOZ-Fmwr8OnzwcKuDfj-3">
                    <mxGeometry relative="1" as="geometry">
                        <mxPoint x="517.5" y="515" as="sourcePoint"/>
                        <mxPoint x="415" y="409.9999999999999" as="targetPoint"/>
                        <Array as="points">
                            <mxPoint x="400" y="515"/>
                            <mxPoint x="400" y="410"/>
                        </Array>
                    </mxGeometry>
                </mxCell>
                <mxCell id="TLOZ-Fmwr8OnzwcKuDfj-96" style="edgeStyle=orthogonalEdgeStyle;rounded=0;sketch=0;jumpStyle=none;jumpSize=6;orthogonalLoop=1;jettySize=auto;html=1;fontFamily=Times New Roman;fontSize=16;startArrow=none;startFill=0;fillColor=none;entryX=0;entryY=0.75;entryDx=0;entryDy=0;exitX=0;exitY=0.75;exitDx=0;exitDy=0;" edge="1" parent="1" source="TLOZ-Fmwr8OnzwcKuDfj-4" target="TLOZ-Fmwr8OnzwcKuDfj-6">
                    <mxGeometry relative="1" as="geometry">
                        <mxPoint x="410" y="550" as="targetPoint"/>
                        <mxPoint x="517.5" y="515" as="sourcePoint"/>
                        <Array as="points">
                            <mxPoint x="400" y="515"/>
                            <mxPoint x="400" y="540"/>
                            <mxPoint x="140" y="540"/>
                            <mxPoint x="140" y="410"/>
                        </Array>
                    </mxGeometry>
                </mxCell>
                <mxCell id="TLOZ-Fmwr8OnzwcKuDfj-4" value="Robot&lt;br&gt;Dynamics" style="rounded=1;whiteSpace=wrap;html=1;fontSize=16;fontFamily=Times New Roman;fontStyle=1;fillColor=#f8cecc;strokeColor=#b85450;" vertex="1" parent="1">
                    <mxGeometry x="527.5" y="470" width="120" height="60" as="geometry"/>
                </mxCell>
                <mxCell id="TLOZ-Fmwr8OnzwcKuDfj-42" style="edgeStyle=orthogonalEdgeStyle;rounded=0;orthogonalLoop=1;jettySize=auto;html=1;exitX=1;exitY=0.25;exitDx=0;exitDy=0;entryX=0;entryY=0.25;entryDx=0;entryDy=0;startArrow=none;startFill=0;fontSize=16;fontFamily=Times New Roman;fontStyle=0" edge="1" parent="1" source="TLOZ-Fmwr8OnzwcKuDfj-6" target="TLOZ-Fmwr8OnzwcKuDfj-3">
                    <mxGeometry relative="1" as="geometry"/>
                </mxCell>
                <mxCell id="TLOZ-Fmwr8OnzwcKuDfj-43" style="edgeStyle=orthogonalEdgeStyle;rounded=0;orthogonalLoop=1;jettySize=auto;html=1;exitX=1;exitY=0.5;exitDx=0;exitDy=0;entryX=0;entryY=0.5;entryDx=0;entryDy=0;startArrow=none;startFill=0;fontSize=16;fontFamily=Times New Roman;fontStyle=0" edge="1" parent="1" source="TLOZ-Fmwr8OnzwcKuDfj-6" target="TLOZ-Fmwr8OnzwcKuDfj-3">
                    <mxGeometry relative="1" as="geometry"/>
                </mxCell>
                <mxCell id="TLOZ-Fmwr8OnzwcKuDfj-6" value="NN Policy" style="rounded=1;whiteSpace=wrap;html=1;fontSize=16;fontFamily=Times New Roman;fontStyle=1;fillColor=none;" vertex="1" parent="1">
                    <mxGeometry x="165" y="365" width="120" height="60" as="geometry"/>
                </mxCell>
                <mxCell id="TLOZ-Fmwr8OnzwcKuDfj-17" value="Reaction&lt;br style=&quot;font-size: 16px;&quot;&gt;Force" style="text;html=1;align=center;verticalAlign=middle;resizable=0;points=[];autosize=1;strokeColor=none;fontSize=16;fontFamily=Times New Roman;fontStyle=0" vertex="1" parent="1">
                    <mxGeometry x="545" y="375" width="70" height="40" as="geometry"/>
                </mxCell>
                <mxCell id="TLOZ-Fmwr8OnzwcKuDfj-81" style="edgeStyle=orthogonalEdgeStyle;rounded=0;orthogonalLoop=1;jettySize=auto;html=1;exitX=1;exitY=0.5;exitDx=0;exitDy=0;entryX=1;entryY=0.5;entryDx=0;entryDy=0;fontFamily=Times New Roman;fontSize=16;startArrow=none;startFill=0;" edge="1" parent="1" source="TLOZ-Fmwr8OnzwcKuDfj-20" target="TLOZ-Fmwr8OnzwcKuDfj-4">
                    <mxGeometry relative="1" as="geometry">
                        <Array as="points">
                            <mxPoint x="760" y="395"/>
                            <mxPoint x="760" y="500"/>
                        </Array>
                    </mxGeometry>
                </mxCell>
                <mxCell id="TLOZ-Fmwr8OnzwcKuDfj-20" value="Joint&lt;br style=&quot;font-size: 16px;&quot;&gt;Controller" style="rounded=1;whiteSpace=wrap;html=1;fontSize=16;fontFamily=Times New Roman;fontStyle=1;fillColor=none;" vertex="1" parent="1">
                    <mxGeometry x="620" y="365" width="120" height="60" as="geometry"/>
                </mxCell>
                <mxCell id="TLOZ-Fmwr8OnzwcKuDfj-23" value="Joint&lt;br style=&quot;font-size: 16px&quot;&gt;Torque" style="text;html=1;align=right;verticalAlign=middle;resizable=0;points=[];autosize=1;strokeColor=none;fontSize=16;fontFamily=Times New Roman;fontStyle=0" vertex="1" parent="1">
                    <mxGeometry x="690" y="460" width="60" height="40" as="geometry"/>
                </mxCell>
                <mxCell id="TLOZ-Fmwr8OnzwcKuDfj-28" value="" style="edgeStyle=orthogonalEdgeStyle;rounded=0;orthogonalLoop=1;jettySize=auto;html=1;startArrow=none;startFill=0;fontSize=16;fontFamily=Times New Roman;fontStyle=0" edge="1" parent="1" source="TLOZ-Fmwr8OnzwcKuDfj-27" target="TLOZ-Fmwr8OnzwcKuDfj-6">
                    <mxGeometry relative="1" as="geometry"/>
                </mxCell>
                <mxCell id="TLOZ-Fmwr8OnzwcKuDfj-27" value="RL Algorithm" style="rounded=1;whiteSpace=wrap;html=1;fontSize=16;fontFamily=Times New Roman;fontStyle=1;fillColor=none;" vertex="1" parent="1">
                    <mxGeometry x="165" y="470" width="120" height="60" as="geometry"/>
                </mxCell>
                <mxCell id="TLOZ-Fmwr8OnzwcKuDfj-40" value="Tracking" style="text;html=1;align=center;verticalAlign=middle;resizable=0;points=[];autosize=1;strokeColor=none;fontSize=16;fontFamily=Times New Roman;fontStyle=0" vertex="1" parent="1">
                    <mxGeometry x="414" y="340" width="70" height="20" as="geometry"/>
                </mxCell>
                <mxCell id="TLOZ-Fmwr8OnzwcKuDfj-45" value="Trajectory" style="text;html=1;align=center;verticalAlign=middle;resizable=0;points=[];autosize=1;strokeColor=none;fontSize=16;fontFamily=Times New Roman;fontStyle=0" vertex="1" parent="1">
                    <mxGeometry x="290" y="360" width="80" height="20" as="geometry"/>
                </mxCell>
                <mxCell id="TLOZ-Fmwr8OnzwcKuDfj-46" value="Foothold" style="text;html=1;align=center;verticalAlign=middle;resizable=0;points=[];autosize=1;strokeColor=none;fontSize=16;fontFamily=Times New Roman;fontStyle=0" vertex="1" parent="1">
                    <mxGeometry x="295" y="395" width="70" height="20" as="geometry"/>
                </mxCell>
                <mxCell id="TLOZ-Fmwr8OnzwcKuDfj-52" value="Policy&lt;br style=&quot;font-size: 16px&quot;&gt;Gradient" style="text;html=1;align=right;verticalAlign=middle;resizable=0;points=[];autosize=1;strokeColor=none;fontSize=16;fontFamily=Times New Roman;fontStyle=0" vertex="1" parent="1">
                    <mxGeometry x="150" y="430" width="70" height="40" as="geometry"/>
                </mxCell>
                <mxCell id="TLOZ-Fmwr8OnzwcKuDfj-53" value="Reward" style="text;html=1;align=center;verticalAlign=middle;resizable=0;points=[];autosize=1;strokeColor=none;fontSize=16;fontFamily=Times New Roman;fontStyle=0" vertex="1" parent="1">
                    <mxGeometry x="403" y="480" width="70" height="20" as="geometry"/>
                </mxCell>
                <mxCell id="TLOZ-Fmwr8OnzwcKuDfj-54" value="Action" style="text;html=1;align=center;verticalAlign=middle;resizable=0;points=[];autosize=1;strokeColor=none;fontSize=16;fontFamily=Times New Roman;fontStyle=0" vertex="1" parent="1">
                    <mxGeometry x="285" y="460" width="60" height="20" as="geometry"/>
                </mxCell>
                <mxCell id="TLOZ-Fmwr8OnzwcKuDfj-60" value="" style="endArrow=classic;html=1;entryX=0;entryY=0.25;entryDx=0;entryDy=0;fontSize=16;fontFamily=Times New Roman;fontStyle=0;exitX=0.028;exitY=1.019;exitDx=0;exitDy=0;exitPerimeter=0;" edge="1" parent="1" source="TLOZ-Fmwr8OnzwcKuDfj-61" target="TLOZ-Fmwr8OnzwcKuDfj-6">
                    <mxGeometry width="50" height="50" relative="1" as="geometry">
                        <mxPoint x="35" y="380" as="sourcePoint"/>
                        <mxPoint x="135" y="320" as="targetPoint"/>
                    </mxGeometry>
                </mxCell>
                <mxCell id="TLOZ-Fmwr8OnzwcKuDfj-61" value="Command" style="text;html=1;align=center;verticalAlign=middle;resizable=0;points=[];autosize=1;strokeColor=none;fontSize=16;fontFamily=Times New Roman;fontStyle=0" vertex="1" parent="1">
                    <mxGeometry x="40" y="360" width="80" height="20" as="geometry"/>
                </mxCell>
                <mxCell id="TLOZ-Fmwr8OnzwcKuDfj-87" value="States" style="text;html=1;align=center;verticalAlign=middle;resizable=0;points=[];autosize=1;strokeColor=none;fontSize=16;fontFamily=Times New Roman;" vertex="1" parent="1">
                    <mxGeometry x="405" y="518" width="50" height="20" as="geometry"/>
                </mxCell>
                <mxCell id="TLOZ-Fmwr8OnzwcKuDfj-94" value="" style="ellipse;fillColor=#000000;strokeColor=none;dashed=1;fontFamily=Times New Roman;fontSize=16;aspect=fixed;" vertex="1" parent="1">
                    <mxGeometry x="396" y="510" width="8" height="8" as="geometry"/>
                </mxCell>
                <mxCell id="TLOZ-Fmwr8OnzwcKuDfj-100" value="Planning" style="text;html=1;align=center;verticalAlign=middle;resizable=0;points=[];autosize=1;strokeColor=none;fontSize=16;fontFamily=Times New Roman;" vertex="1" parent="1">
                    <mxGeometry x="130" y="345" width="70" height="20" as="geometry"/>
                </mxCell>
            </root>
        </mxGraphModel>
    </diagram>
</mxfile>